<?xml version="1.0" encoding="utf-8" ?>
<svg baseProfile="tiny" height="210mm" version="1.2" width="420mm" xmlns="http://www.w3.org/2000/svg" xmlns:ev="http://www.w3.org/2001/xml-events" xmlns:xlink="http://www.w3.org/1999/xlink"><defs /><rect fill="none" height="20mm" rx="3mm" ry="3mm" stroke="black" stroke-width="1mm" width="47.599999999999994mm" x="66mm" y="20mm" /><text font-family="Liberation Sans" font-size="50px" font-weight="100" stroke-width="1mm" text-anchor="middle" x="339" y="136">Acc.</text><rect fill="none" height="34.599999999999994mm" stroke="blue" stroke-dasharray="5,5" stroke-width="0.5mm" width="54.19999999999999mm" x="62.7mm" y="12.7mm" /><rect fill="none" height="20mm" rx="3mm" ry="3mm" stroke="black" stroke-width="1mm" width="47.599999999999994mm" x="120.6mm" y="20mm" /><text font-family="Liberation Sans" font-size="50px" font-weight="100" stroke-width="1mm" text-anchor="middle" x="545" y="136">Rech.</text><rect fill="none" height="34.599999999999994mm" stroke="blue" stroke-dasharray="5,5" stroke-width="0.5mm" width="54.2mm" x="117.3mm" y="12.7mm" /><rect fill="none" height="20mm" rx="3mm" ry="3mm" stroke="black" stroke-width="1mm" width="47.599999999999994mm" x="175.2mm" y="20mm" /><text font-family="Liberation Sans" font-size="50px" font-weight="100" stroke-width="1mm" text-anchor="middle" x="751" y="136">Emp.</text><rect fill="none" height="34.599999999999994mm" stroke="blue" stroke-dasharray="5,5" stroke-width="0.5mm" width="54.20000000000002mm" x="171.89999999999998mm" y="12.7mm" /><rect fill="none" height="20mm" rx="3mm" ry="3mm" stroke="black" stroke-width="1mm" width="47.599999999999994mm" x="229.79999999999998mm" y="20mm" /><text font-family="Liberation Sans" font-size="50px" font-weight="100" stroke-width="1mm" text-anchor="middle" x="958" y="136">Bio.</text><rect fill="none" height="34.599999999999994mm" stroke="blue" stroke-dasharray="5,5" stroke-width="0.5mm" width="54.20000000000002mm" x="226.49999999999997mm" y="12.7mm" /><rect fill="none" height="20mm" rx="3mm" ry="3mm" stroke="black" stroke-width="1mm" width="23.799999999999997mm" x="284.4mm" y="20mm" /><text font-family="Liberation Sans" font-size="50px" font-weight="100" stroke-width="1mm" text-anchor="middle" x="1119" y="136">-</text><rect fill="none" height="34.599999999999994mm" stroke="blue" stroke-dasharray="5,5" stroke-width="0.5mm" width="30.400000000000034mm" x="281.09999999999997mm" y="12.7mm" /><rect fill="none" height="20mm" rx="3mm" ry="3mm" stroke="black" stroke-width="1mm" width="23.799999999999997mm" x="315.2mm" y="20mm" /><text font-family="Liberation Sans" font-size="50px" font-weight="100" stroke-width="1mm" text-anchor="middle" x="1235" y="136">+</text><rect fill="none" height="34.599999999999994mm" stroke="blue" stroke-dasharray="5,5" stroke-width="0.5mm" width="30.400000000000034mm" x="311.9mm" y="12.7mm" /><rect fill="none" height="20mm" rx="3mm" ry="3mm" stroke="black" stroke-width="1mm" width="23.799999999999997mm" x="17mm" y="55mm" /><text font-family="Liberation Sans" font-size="50px" font-weight="100" stroke-width="1mm" text-anchor="middle" x="109" y="268">A</text><rect fill="none" height="34.599999999999994mm" stroke="blue" stroke-dasharray="5,5" stroke-width="0.5mm" width="30.399999999999995mm" x="13.7mm" y="47.7mm" /><rect fill="none" height="20mm" rx="3mm" ry="3mm" stroke="black" stroke-width="1mm" width="23.799999999999997mm" x="47.8mm" y="55mm" /><text font-family="Liberation Sans" font-size="50px" font-weight="100" stroke-width="1mm" text-anchor="middle" x="225" y="268">Z</text><rect fill="none" height="34.599999999999994mm" stroke="blue" stroke-dasharray="5,5" stroke-width="0.5mm" width="30.39999999999999mm" x="44.5mm" y="47.7mm" /><rect fill="none" height="20mm" rx="3mm" ry="3mm" stroke="black" stroke-width="1mm" width="23.799999999999997mm" x="78.6mm" y="55mm" /><text font-family="Liberation Sans" font-size="50px" font-weight="100" stroke-width="1mm" text-anchor="middle" x="342" y="268">E</text><rect fill="none" height="34.599999999999994mm" stroke="blue" stroke-dasharray="5,5" stroke-width="0.5mm" width="30.39999999999999mm" x="75.3mm" y="47.7mm" /><rect fill="none" height="20mm" rx="3mm" ry="3mm" stroke="black" stroke-width="1mm" width="23.799999999999997mm" x="109.39999999999999mm" y="55mm" /><text font-family="Liberation Sans" font-size="50px" font-weight="100" stroke-width="1mm" text-anchor="middle" x="458" y="268">R</text><rect fill="none" height="34.599999999999994mm" stroke="blue" stroke-dasharray="5,5" stroke-width="0.5mm" width="30.400000000000006mm" x="106.1mm" y="47.7mm" /><rect fill="none" height="20mm" rx="3mm" ry="3mm" stroke="black" stroke-width="1mm" width="23.799999999999997mm" x="140.2mm" y="55mm" /><text font-family="Liberation Sans" font-size="50px" font-weight="100" stroke-width="1mm" text-anchor="middle" x="574" y="268">T</text><rect fill="none" height="34.599999999999994mm" stroke="blue" stroke-dasharray="5,5" stroke-width="0.5mm" width="30.400000000000034mm" x="136.89999999999998mm" y="47.7mm" /><rect fill="none" height="20mm" rx="3mm" ry="3mm" stroke="black" stroke-width="1mm" width="23.799999999999997mm" x="171.0mm" y="55mm" /><text font-family="Liberation Sans" font-size="50px" font-weight="100" stroke-width="1mm" text-anchor="middle" x="691" y="268">Y</text><rect fill="none" height="34.599999999999994mm" stroke="blue" stroke-dasharray="5,5" stroke-width="0.5mm" width="30.400000000000034mm" x="167.7mm" y="47.7mm" /><rect fill="none" height="20mm" rx="3mm" ry="3mm" stroke="black" stroke-width="1mm" width="23.799999999999997mm" x="201.8mm" y="55mm" /><text font-family="Liberation Sans" font-size="50px" font-weight="100" stroke-width="1mm" text-anchor="middle" x="807" y="268">U</text><rect fill="none" height="34.599999999999994mm" stroke="blue" stroke-dasharray="5,5" stroke-width="0.5mm" width="30.400000000000034mm" x="198.5mm" y="47.7mm" /><rect fill="none" height="20mm" rx="3mm" ry="3mm" stroke="black" stroke-width="1mm" width="23.799999999999997mm" x="232.60000000000002mm" y="55mm" /><text font-family="Liberation Sans" font-size="50px" font-weight="100" stroke-width="1mm" text-anchor="middle" x="923" y="268">I</text><rect fill="none" height="34.599999999999994mm" stroke="blue" stroke-dasharray="5,5" stroke-width="0.5mm" width="30.400000000000034mm" x="229.3mm" y="47.7mm" /><rect fill="none" height="20mm" rx="3mm" ry="3mm" stroke="black" stroke-width="1mm" width="23.799999999999997mm" x="263.40000000000003mm" y="55mm" /><text font-family="Liberation Sans" font-size="50px" font-weight="100" stroke-width="1mm" text-anchor="middle" x="1040" y="268">O</text><rect fill="none" height="34.599999999999994mm" stroke="blue" stroke-dasharray="5,5" stroke-width="0.5mm" width="30.400000000000034mm" x="260.1mm" y="47.7mm" /><rect fill="none" height="20mm" rx="3mm" ry="3mm" stroke="black" stroke-width="1mm" width="23.799999999999997mm" x="294.20000000000005mm" y="55mm" /><text font-family="Liberation Sans" font-size="50px" font-weight="100" stroke-width="1mm" text-anchor="middle" x="1156" y="268">P</text><rect fill="none" height="34.599999999999994mm" stroke="blue" stroke-dasharray="5,5" stroke-width="0.5mm" width="30.400000000000034mm" x="290.90000000000003mm" y="47.7mm" /><rect fill="none" height="20mm" rx="3mm" ry="3mm" stroke="black" stroke-width="1mm" width="47.599999999999994mm" x="335.50000000000006mm" y="55mm" /><text font-family="Liberation Sans" font-size="50px" font-weight="100" stroke-width="1mm" text-anchor="middle" x="1357" y="268">DEL</text><rect fill="none" height="34.599999999999994mm" stroke="blue" stroke-dasharray="5,5" stroke-width="0.5mm" width="54.19999999999999mm" x="332.20000000000005mm" y="47.7mm" /><rect fill="none" height="20mm" rx="3mm" ry="3mm" stroke="black" stroke-width="1mm" width="23.799999999999997mm" x="27.5mm" y="90mm" /><text font-family="Liberation Sans" font-size="50px" font-weight="100" stroke-width="1mm" text-anchor="middle" x="149" y="400">Q</text><rect fill="none" height="34.599999999999994mm" stroke="blue" stroke-dasharray="5,5" stroke-width="0.5mm" width="30.399999999999995mm" x="24.2mm" y="82.7mm" /><rect fill="none" height="20mm" rx="3mm" ry="3mm" stroke="black" stroke-width="1mm" width="23.799999999999997mm" x="58.3mm" y="90mm" /><text font-family="Liberation Sans" font-size="50px" font-weight="100" stroke-width="1mm" text-anchor="middle" x="265" y="400">S</text><rect fill="none" height="34.599999999999994mm" stroke="blue" stroke-dasharray="5,5" stroke-width="0.5mm" width="30.39999999999999mm" x="55.0mm" y="82.7mm" /><rect fill="none" height="20mm" rx="3mm" ry="3mm" stroke="black" stroke-width="1mm" width="23.799999999999997mm" x="89.1mm" y="90mm" /><text font-family="Liberation Sans" font-size="50px" font-weight="100" stroke-width="1mm" text-anchor="middle" x="381" y="400">D</text><rect fill="none" height="34.599999999999994mm" stroke="blue" stroke-dasharray="5,5" stroke-width="0.5mm" width="30.39999999999999mm" x="85.8mm" y="82.7mm" /><rect fill="none" height="20mm" rx="3mm" ry="3mm" stroke="black" stroke-width="1mm" width="23.799999999999997mm" x="119.89999999999999mm" y="90mm" /><text font-family="Liberation Sans" font-size="50px" font-weight="100" stroke-width="1mm" text-anchor="middle" x="498" y="400">F</text><rect fill="none" height="34.599999999999994mm" stroke="blue" stroke-dasharray="5,5" stroke-width="0.5mm" width="30.400000000000006mm" x="116.6mm" y="82.7mm" /><rect fill="none" height="20mm" rx="3mm" ry="3mm" stroke="black" stroke-width="1mm" width="23.799999999999997mm" x="150.7mm" y="90mm" /><text font-family="Liberation Sans" font-size="50px" font-weight="100" stroke-width="1mm" text-anchor="middle" x="614" y="400">G</text><rect fill="none" height="34.599999999999994mm" stroke="blue" stroke-dasharray="5,5" stroke-width="0.5mm" width="30.400000000000034mm" x="147.39999999999998mm" y="82.7mm" /><rect fill="none" height="20mm" rx="3mm" ry="3mm" stroke="black" stroke-width="1mm" width="23.799999999999997mm" x="181.5mm" y="90mm" /><text font-family="Liberation Sans" font-size="50px" font-weight="100" stroke-width="1mm" text-anchor="middle" x="730" y="400">H</text><rect fill="none" height="34.599999999999994mm" stroke="blue" stroke-dasharray="5,5" stroke-width="0.5mm" width="30.400000000000034mm" x="178.2mm" y="82.7mm" /><rect fill="none" height="20mm" rx="3mm" ry="3mm" stroke="black" stroke-width="1mm" width="23.799999999999997mm" x="212.3mm" y="90mm" /><text font-family="Liberation Sans" font-size="50px" font-weight="100" stroke-width="1mm" text-anchor="middle" x="847" y="400">J</text><rect fill="none" height="34.599999999999994mm" stroke="blue" stroke-dasharray="5,5" stroke-width="0.5mm" width="30.400000000000034mm" x="209.0mm" y="82.7mm" /><rect fill="none" height="20mm" rx="3mm" ry="3mm" stroke="black" stroke-width="1mm" width="23.799999999999997mm" x="243.10000000000002mm" y="90mm" /><text font-family="Liberation Sans" font-size="50px" font-weight="100" stroke-width="1mm" text-anchor="middle" x="963" y="400">K</text><rect fill="none" height="34.599999999999994mm" stroke="blue" stroke-dasharray="5,5" stroke-width="0.5mm" width="30.400000000000034mm" x="239.8mm" y="82.7mm" /><rect fill="none" height="20mm" rx="3mm" ry="3mm" stroke="black" stroke-width="1mm" width="23.799999999999997mm" x="273.90000000000003mm" y="90mm" /><text font-family="Liberation Sans" font-size="50px" font-weight="100" stroke-width="1mm" text-anchor="middle" x="1079" y="400">L</text><rect fill="none" height="34.599999999999994mm" stroke="blue" stroke-dasharray="5,5" stroke-width="0.5mm" width="30.400000000000034mm" x="270.6mm" y="82.7mm" /><rect fill="none" height="20mm" rx="3mm" ry="3mm" stroke="black" stroke-width="1mm" width="23.799999999999997mm" x="304.70000000000005mm" y="90mm" /><text font-family="Liberation Sans" font-size="50px" font-weight="100" stroke-width="1mm" text-anchor="middle" x="1195" y="400">M</text><rect fill="none" height="34.599999999999994mm" stroke="blue" stroke-dasharray="5,5" stroke-width="0.5mm" width="30.400000000000034mm" x="301.40000000000003mm" y="82.7mm" /><rect fill="none" height="47.5mm" rx="3mm" ry="3mm" stroke="black" stroke-width="1mm" width="47.599999999999994mm" x="335.50000000000006mm" y="90mm" /><text font-family="Liberation Sans" font-size="80px" font-weight="100" stroke-width="1mm" text-anchor="middle" x="1357" y="456">OK</text><rect fill="none" height="62.10000000000001mm" stroke="blue" stroke-dasharray="5,5" stroke-width="0.5mm" width="54.19999999999999mm" x="332.20000000000005mm" y="82.7mm" /><rect fill="none" height="20mm" rx="3mm" ry="3mm" stroke="black" stroke-width="1mm" width="23.799999999999997mm" x="17mm" y="125mm" /><text font-family="Liberation Sans" font-size="50px" font-weight="100" stroke-width="1mm" text-anchor="middle" x="109" y="532">W</text><rect fill="none" height="34.60000000000001mm" stroke="blue" stroke-dasharray="5,5" stroke-width="0.5mm" width="30.399999999999995mm" x="13.7mm" y="117.7mm" /><rect fill="none" height="20mm" rx="3mm" ry="3mm" stroke="black" stroke-width="1mm" width="23.799999999999997mm" x="47.8mm" y="125mm" /><text font-family="Liberation Sans" font-size="50px" font-weight="100" stroke-width="1mm" text-anchor="middle" x="225" y="532">X</text><rect fill="none" height="34.60000000000001mm" stroke="blue" stroke-dasharray="5,5" stroke-width="0.5mm" width="30.39999999999999mm" x="44.5mm" y="117.7mm" /><rect fill="none" height="20mm" rx="3mm" ry="3mm" stroke="black" stroke-width="1mm" width="23.799999999999997mm" x="78.6mm" y="125mm" /><text font-family="Liberation Sans" font-size="50px" font-weight="100" stroke-width="1mm" text-anchor="middle" x="342" y="532">C</text><rect fill="none" height="34.60000000000001mm" stroke="blue" stroke-dasharray="5,5" stroke-width="0.5mm" width="30.39999999999999mm" x="75.3mm" y="117.7mm" /><rect fill="none" height="20mm" rx="3mm" ry="3mm" stroke="black" stroke-width="1mm" width="23.799999999999997mm" x="109.39999999999999mm" y="125mm" /><text font-family="Liberation Sans" font-size="50px" font-weight="100" stroke-width="1mm" text-anchor="middle" x="458" y="532">V</text><rect fill="none" height="34.60000000000001mm" stroke="blue" stroke-dasharray="5,5" stroke-width="0.5mm" width="30.400000000000006mm" x="106.1mm" y="117.7mm" /><rect fill="none" height="20mm" rx="3mm" ry="3mm" stroke="black" stroke-width="1mm" width="23.799999999999997mm" x="140.2mm" y="125mm" /><text font-family="Liberation Sans" font-size="50px" font-weight="100" stroke-width="1mm" text-anchor="middle" x="574" y="532">B</text><rect fill="none" height="34.60000000000001mm" stroke="blue" stroke-dasharray="5,5" stroke-width="0.5mm" width="30.400000000000034mm" x="136.89999999999998mm" y="117.7mm" /><rect fill="none" height="20mm" rx="3mm" ry="3mm" stroke="black" stroke-width="1mm" width="23.799999999999997mm" x="171.0mm" y="125mm" /><text font-family="Liberation Sans" font-size="50px" font-weight="100" stroke-width="1mm" text-anchor="middle" x="691" y="532">N</text><rect fill="none" height="34.60000000000001mm" stroke="blue" stroke-dasharray="5,5" stroke-width="0.5mm" width="30.400000000000034mm" x="167.7mm" y="117.7mm" /><rect fill="none" height="20mm" rx="3mm" ry="3mm" stroke="black" stroke-width="1mm" width="47.599999999999994mm" x="208.8mm" y="125mm" /><line stroke="black" stroke-width="1mm" x1="232.60000000000002mm" x2="229.60000000000002mm" y1="129mm" y2="135mm" /><line stroke="black" stroke-width="1mm" x1="232.60000000000002mm" x2="235.60000000000002mm" y1="129mm" y2="135mm" /><line stroke="black" stroke-width="1mm" x1="232.60000000000002mm" x2="232.60000000000002mm" y1="141mm" y2="129mm" /><rect fill="none" height="34.60000000000001mm" stroke="blue" stroke-dasharray="5,5" stroke-width="0.5mm" width="54.19999999999999mm" x="205.5mm" y="117.7mm" /><rect fill="none" height="20mm" rx="3mm" ry="3mm" stroke="black" stroke-width="1mm" width="47.599999999999994mm" x="270.4mm" y="125mm" /><line stroke="black" stroke-width="1mm" x1="294.2mm" x2="291.2mm" y1="141mm" y2="135mm" /><line stroke="black" stroke-width="1mm" x1="294.2mm" x2="297.2mm" y1="141mm" y2="135mm" /><line stroke="black" stroke-width="1mm" x1="294.2mm" x2="294.2mm" y1="129mm" y2="141mm" /><rect fill="none" height="34.60000000000001mm" stroke="blue" stroke-dasharray="5,5" stroke-width="0.5mm" width="54.200000000000045mm" x="267.09999999999997mm" y="117.7mm" /><rect fill="none" height="20mm" rx="3mm" ry="3mm" stroke="black" stroke-width="1mm" width="47.599999999999994mm" x="47.8mm" y="160mm" /><line stroke="black" stroke-width="1mm" x1="59.8mm" x2="69.8mm" y1="170.0mm" y2="166.66666666666666mm" /><line stroke="black" stroke-width="1mm" x1="59.8mm" x2="69.8mm" y1="170.0mm" y2="173.33333333333334mm" /><line stroke="black" stroke-width="1mm" x1="83.39999999999999mm" x2="59.8mm" y1="170.0mm" y2="170.0mm" /><rect fill="none" height="34.60000000000002mm" stroke="blue" stroke-dasharray="5,5" stroke-width="0.5mm" width="54.19999999999999mm" x="44.5mm" y="152.7mm" /><rect fill="none" height="20mm" rx="3mm" ry="3mm" stroke="black" stroke-width="1mm" width="166.59999999999997mm" x="102.39999999999999mm" y="160mm" /><text font-family="Liberation Sans" font-size="60px" font-weight="100" stroke-width="1mm" text-anchor="middle" x="701" y="668">ESPACE</text><rect fill="none" height="34.60000000000002mm" stroke="blue" stroke-dasharray="5,5" stroke-width="0.5mm" width="173.19999999999996mm" x="99.1mm" y="152.7mm" /><rect fill="none" height="20mm" rx="3mm" ry="3mm" stroke="black" stroke-width="1mm" width="47.599999999999994mm" x="275.99999999999994mm" y="160mm" /><line stroke="black" stroke-width="1mm" x1="311.5999999999999mm" x2="301.5999999999999mm" y1="170.0mm" y2="166.66666666666666mm" /><line stroke="black" stroke-width="1mm" x1="311.5999999999999mm" x2="301.5999999999999mm" y1="170.0mm" y2="173.33333333333334mm" /><line stroke="black" stroke-width="1mm" x1="287.99999999999994mm" x2="311.5999999999999mm" y1="170.0mm" y2="170.0mm" /><rect fill="none" height="34.60000000000002mm" stroke="blue" stroke-dasharray="5,5" stroke-width="0.5mm" width="54.19999999999999mm" x="272.69999999999993mm" y="152.7mm" /><circle cx="368.3999999999999mm" cy="170.0mm" fill="none" r="10mm" stroke="black" stroke-width="1mm" /><circle cx="368.3999999999999mm" cy="170.0mm" fill="none" r="1mm" stroke="black" stroke-width="1mm" /><circle cx="368.3999999999999mm" cy="30.0mm" fill="none" r="10mm" stroke="black" stroke-width="1mm" /><circle cx="368.3999999999999mm" cy="30.0mm" fill="none" r="1mm" stroke="black" stroke-width="1mm" /><circle cx="33.8mm" cy="30.0mm" fill="none" r="10mm" stroke="black" stroke-width="1mm" /><circle cx="33.8mm" cy="30.0mm" fill="none" r="1mm" stroke="black" stroke-width="1mm" /><rect fill="none" height="186mm" rx="9mm" ry="9mm" stroke="black" stroke-width="1mm" width="387.6mm" x="10mm" y="10mm" /></svg>